 


<svg version="1.1" id="Layer_1" xmlns="http://www.w3.org/2000/svg" xmlns:xlink="http://www.w3.org/1999/xlink" 
	 viewBox="0 0 36 36"xml:space="preserve">
<g transform="translate(0 -1020.36)">
	<g>
		
			<path shape-rendering="auto" image-rendering="auto" color-rendering="auto" color-interpolation="sRGB" style="fill:#464C63;" d="
			M216.776,1203.551c-19.76,0-40.357,7.172-56.97,25.656c-15.917-12.318-33.915-15.898-50-12
			c-16.525,4.008-30.806,15.391-40.312,31.031c-0.016,0,0,0.16,0,0.16L2.681,1362.43c-3.926,6.668,2.957,14.471,10.062,11.406
			l44.626-19.188v3.846c0.008,6.217,6.797,10.049,12.125,6.844l27.75-16.688v1.846c0,5.977,6.339,9.822,11.656,7.094l27.656-14.281
			c1.02,36.686-10.387,63.271-27.531,97.287c-2.888,5.33,0.976,11.811,7.032,11.813h203.562c6.013,0,9.896-6.352,7.125-11.688
			c-17.624-33.465-27.569-61.828-28.016-96.041l24.423,12.887c5.315,2.73,11.638-1.119,11.656-7.094v-1.844l27.72,16.686
			c5.328,3.203,12.115-0.623,12.125-6.844v-3.844l44.656,19.188c7.104,3.063,13.986-4.738,10.062-11.406l-66.813-114.031
			c-0.016,0,0-0.16,0-0.16c-9.507-15.641-23.789-27.021-40.312-31.031c-15.584-3.777-32.986-0.496-48.531,10.906
			c-15.643-15.893-37.262-24.5-56.75-24.5L216.776,1203.551z M216.776,1219.458L216.776,1219.458
			c19.824,0,45.781,13.305,56.562,35.469c7.79,17.316,9.101,39.076,9.282,62.279c0.176,23.26-0.688,47.811,4.718,70.75
			c0.8,3.291,1.963,6.57,3.062,9.846H145.244c0.8-2.537,1.722-5.027,2.344-7.625c6.224-23.127,5.182-48.07,5-71.781
			c-0.176-23.588,0.608-45.766,8.28-63.314c15.522-28.115,34.979-35.656,55.907-35.656L216.776,1219.458z M122.588,1231.52
			L122.588,1231.52c8.906-0.16,18.19,3.068,27.594,10.438c-1.184,1.885-2.438,3.605-3.562,5.656
			c-0.115,0.191-0.222,0.385-0.32,0.592c-9.629,21.689-9.933,46.25-9.749,70.314c0.016,2.23,0,4.34,0,6.563h-0.16l-23.282,12.031
			v-2.846c-0.01-6.217-6.797-10.049-12.125-6.844l-27.75,16.688v-1.846c-0.007-5.74-5.879-9.605-11.155-7.342l-33.406,14.342
			l54.406-92.906c7.598-12.502,18.637-20.92,30.437-23.781c2.949-0.721,5.976-1.088,9.032-1.119L122.588,1231.52z M309.15,1231.52
			h0.16c3.058,0,6.08,0.416,9.03,1.119c11.798,2.861,22.808,11.279,30.406,23.781l54.438,92.938l-33.438-14.375
			c-5.276-2.264-11.149,1.604-11.155,7.344v1.844l-27.72-16.688c-5.328-3.205-12.116,0.623-12.125,6.846v2.844l-19.938-10.281
			c-0.011-3.293-0.16-6.471-0.16-9.781c-0.192-23.676-1.12-47.686-10.72-68.906l-0.16-0.191c-1.248-2.58-2.778-4.941-4.282-7.313
			c8.76-6.336,17.408-9.266,25.718-9.188L309.15,1231.52z"/>
	</g>
	<g shape-rendering="auto" image-rendering="auto" color-rendering="auto" color-interpolation="sRGB">
		<path style="fill:#FFB900;" d="M139.227,1413.86h157.344c4.064,9.135,8.278,17.16,10.968,22.438H128.039
			C130.873,1430.938,135.159,1422.987,139.227,1413.86L139.227,1413.86z"/>
		<path style="fill:#464C63;" d="M219.9,1092.364c-26.365,0-47.875,21.598-47.875,48s21.51,48,47.875,48s47.906-21.598,47.906-48
			S246.264,1092.364,219.9,1092.364L219.9,1092.364z M219.9,1108.364c11.107,0,20.822,5.615,26.531,14.188
			c-1.699,0.783-3.829,1.889-4.437,2.031c-9.72,2.301-23.28-2.721-39.314-0.16c-3.832,0.623-8.046,1.896-12.062,3.25
			c4.864-11.395,16.086-19.313,29.282-19.313L219.9,1108.364z"/>
		<path style="fill:#FFB900;" d="M251.571,1137.985c0,0.801,0.256,1.553,0.256,2.377c0,17.779-14.214,32-31.907,32
			c-15.886,0-28.843-11.506-31.342-26.721c5.182-1.984,12.678-4.754,16.686-5.406c10.213-1.662,24.282,3.709,40.438-0.16l0,0
			c2.093-0.496,4.006-1.279,5.843-2.094L251.571,1137.985z"/>
		<path style="fill:#464C63;" d="M219.918,1020.36c-16.142,0-30.734,2.108-42,5.875c-5.632,1.882-10.467,4.136-14.406,7.25
			c-3.938,3.112-7.406,7.721-7.405,13.531c0,5.811,3.467,10.449,7.405,13.563c3.939,3.111,8.774,5.336,14.406,7.219
			c11.266,3.766,25.859,5.906,42,5.906c16.142,0.002,30.766-2.139,42.032-5.906c5.632-1.883,10.467-4.107,14.406-7.219
			c3.938-3.111,7.405-7.752,7.406-13.563c0-5.811-3.469-10.419-7.406-13.531c-3.938-3.113-8.774-5.368-14.406-7.25
			C250.684,1022.468,236.062,1020.36,219.918,1020.36L219.918,1020.36z"/>
		<path style="fill:#FFB900;" d="M219.918,1036.36c14.698,0,28.024,2.072,36.97,5.063c4.472,1.488,7.818,3.27,9.531,4.623
			c1.714,1.359,1.344,1.625,1.344,0.977c0-0.656,0.368-0.352-1.344,0.992c-1.714,1.359-5.059,3.129-9.531,4.623
			c-8.946,2.99-22.272,5.064-36.97,5.063c-14.696,0-27.992-2.072-36.938-5.063c-4.472-1.488-7.818-3.27-9.531-4.623
			c-1.714-1.359-1.344-1.656-1.344-0.992c0,0.656-0.368,0.385,1.344-0.977c1.714-1.359,5.059-3.129,9.531-4.623
			C191.926,1038.432,205.22,1036.36,219.918,1036.36z"/>
	</g>
</g>
</svg>